<?xml version="1.0" encoding="UTF-8"?>
<svg id="Layer_1" data-name="Layer 1" xmlns="http://www.w3.org/2000/svg" viewBox="0 0 128 128">
  <defs>
    <style>
      .cls-1 {
        fill: #d3d3d3;
      }

      .cls-2 {
        fill: #0f56f4;
      }
    </style>
  </defs>
  <rect class="cls-1" width="128" height="128"/>
  <path class="cls-2" d="M21.54,63.67c4.31-4.25,9.97-10.24,17-17.99,9.33-10.26,16.17-17.71,20.5-22.34h3.01c-6.85,10.98-15.19,25.32-22.88,40.33,7.27,14.33,15.61,28.7,22.88,40.33h-3.01l-12.47-13.59c-8.82-9.75-14.64-16.12-17.45-19.11-2.81-2.99-5.34-5.53-7.58-7.63Z"/>
  <path class="cls-2" d="M43.39,63.67c4.31-4.25,9.97-10.24,17-17.99,9.33-10.26,16.17-17.71,20.5-22.34h3.01c-6.85,10.98-15.19,25.32-22.88,40.33,7.27,14.33,15.61,28.7,22.88,40.33h-3.01l-12.47-13.59c-8.82-9.75-14.64-16.12-17.45-19.11-2.81-2.99-5.34-5.53-7.58-7.63Z"/>
  <path class="cls-2" d="M65.25,63.67c4.31-4.25,9.97-10.24,17-17.99,9.33-10.26,16.17-17.71,20.5-22.34h3.01c-6.85,10.98-15.19,25.32-22.88,40.33,7.27,14.33,15.61,28.7,22.88,40.33h-3.01l-12.47-13.59c-8.82-9.75-14.64-16.12-17.45-19.11-2.81-2.99-5.34-5.53-7.58-7.63Z"/>
</svg>